<?xml version="1.0" encoding="utf-8"?>
<!-- Generator: Adobe Illustrator 28.1.0, SVG Export Plug-In . SVG Version: 6.00 Build 0)  -->
<svg version="1.1" id="Camada_1" xmlns="http://www.w3.org/2000/svg" xmlns:xlink="http://www.w3.org/1999/xlink" x="0px" y="0px"
	 viewBox="0 0 1200 400" style="enable-background:new 0 0 1200 400;" xml:space="preserve">
<style type="text/css">
	.st0{fill:#D3E6C8;}
	.st1{fill:#3B3735;}
	.st2{fill:#ABD39F;}
	.st3{fill:#7CB898;}
</style>
<g>
	<g>
		<g>
			<path class="st0" d="M152.69,196.13H43.52C19.48,196.13,0,176.65,0,152.62V43.52C0,19.48,19.48,0,43.52,0h109.17
				c24.03,0,43.52,19.48,43.52,43.52v109.1C196.2,176.65,176.72,196.13,152.69,196.13z"/>
		</g>
		<g>
			<g>
				<g>
					<ellipse class="st1" cx="55.55" cy="77.68" rx="8.51" ry="14.34"/>
				</g>
				<g>
					<ellipse class="st1" cx="140.65" cy="77.68" rx="8.51" ry="14.34"/>
				</g>
			</g>
			<g>
				<path class="st1" d="M127.32,110.2c7.71,0,12.7,8.1,9.27,15c-6.47,13-21.09,22.08-38.09,22.08s-31.62-9.07-38.09-22.08
					c-3.43-6.9,1.56-15,9.27-15H127.32z"/>
			</g>
		</g>
	</g>
	<g>
		<g>
			<path class="st2" d="M152.19,400H44.02C19.71,400,0,380.29,0,355.98v-108.1c0-24.31,19.71-44.02,44.02-44.02h108.17
				c24.31,0,44.02,19.71,44.02,44.02v108.1C196.2,380.29,176.49,400,152.19,400z"/>
		</g>
		<g>
			<g>
				<ellipse class="st1" cx="59.52" cy="296.77" rx="11.02" ry="11.02"/>
			</g>
			<g>
				<ellipse class="st1" cx="136.68" cy="296.77" rx="11.02" ry="11.02"/>
			</g>
			<g>
				<path class="st1" d="M160.29,335.59H35.91c-1.45,0-2.62-1.17-2.62-2.62c0-1.45,1.17-2.62,2.62-2.62h124.38
					c1.45,0,2.62,1.17,2.62,2.62C162.91,334.42,161.74,335.59,160.29,335.59z"/>
			</g>
		</g>
	</g>
	<g>
		<g>
			<path class="st3" d="M356.48,196.13H247.31c-24.03,0-43.52-19.48-43.52-43.52V43.52C203.8,19.48,223.28,0,247.31,0h109.17
				C380.52,0,400,19.48,400,43.52v109.1C400,176.65,380.52,196.13,356.48,196.13z"/>
		</g>
		<g>
			<g>
				<path class="st1" d="M330.79,140.88c1.6,0.59,3.22-0.76,2.98-2.45c-2.01-14.08-15.51-24.97-31.87-24.97
					c-16.35,0-29.85,10.88-31.87,24.96c-0.24,1.69,1.38,3.04,2.99,2.45l15.41-5.69c8.59-3.17,18.03-3.19,26.63-0.04L330.79,140.88z"
					/>
			</g>
			<g>
				<g>
					<ellipse class="st1" cx="269.29" cy="87" rx="6.57" ry="11.06"/>
				</g>
				<g>
					<ellipse class="st1" cx="334.96" cy="87" rx="6.57" ry="11.06"/>
				</g>
				<g>
					<path class="st1" d="M276.74,78.97c-3.95-3.01-13.28-8.56-28.48-8.59c-0.77,0-1.52-0.36-1.95-1c-0.79-1.18-1.48-3.18,1.18-4.73
						c0,0,7.44-4.39,16.23-1.01c0,0,9.7,4.85,13.61,11.07c0.17,0.28,0.29,0.58,0.36,0.9l0.56,2.38
						C278.47,78.86,277.46,79.52,276.74,78.97z"/>
				</g>
				<g>
					<path class="st1" d="M327.06,78.97c3.95-3.01,13.28-8.56,28.48-8.59c0.77,0,1.52-0.36,1.95-1c0.79-1.18,1.48-3.18-1.18-4.73
						c0,0-7.44-4.39-16.23-1.01c0,0-9.7,4.85-13.61,11.07c-0.17,0.28-0.29,0.58-0.36,0.9l-0.56,2.38
						C325.33,78.86,326.34,79.52,327.06,78.97z"/>
				</g>
			</g>
		</g>
	</g>
</g>
<g>
	<path class="st1" d="M536,62.57h-60.26v33.04h53.28v30.71h-53.28v35.83H536v31.87H435.96V30.7H536V62.57z"/>
	<path class="st1" d="M561.82,30.7h47l45.83,113.07L700.02,30.7h46.76v163.33H707V96.08l-36.53,97.95h-32.11L601.6,95.84v98.18
		h-39.79V30.7z"/>
	<path class="st1" d="M852.64,195.66c-46.3,0-83.99-34.67-83.99-83.76s37.69-83.53,83.99-83.53c46.53,0,83.53,34.43,83.53,83.53
		S898.94,195.66,852.64,195.66z M852.64,159.36c26.06,0,43.04-18.85,43.04-47.46c0-29.08-16.98-47.46-43.04-47.46
		c-26.52,0-43.27,18.38-43.27,47.46C809.37,140.52,826.12,159.36,852.64,159.36z"/>
	<path class="st1" d="M435.96,216.04h106.33v31.87h-66.54v34.43h49.79v30.94h-49.79v66.08h-39.79V216.04z"/>
	<path class="st1" d="M629.99,216.04c40.02,0,60.03,23.03,60.03,51.42c0,20.47-11.17,39.79-36.3,47.23l37.69,64.68h-44.9
		l-33.97-61.65H603v61.65h-39.79V216.04H629.99z M627.67,249.07H603v40.48h24.66c14.89,0,21.87-7.68,21.87-20.47
		C649.54,256.98,642.56,249.07,627.67,249.07z"/>
	<path class="st1" d="M816.58,350.51h-60.96l-9.77,28.85h-41.65l59.1-163.33h46.07l59.1,163.33h-42.11L816.58,350.51z M786.1,260.01
		L766.1,319.8h40.25L786.1,260.01z"/>
	<path class="st1" d="M886.38,216.04h47l45.83,113.07l45.37-113.07h46.76v163.33h-39.79v-97.95l-36.53,97.95h-32.11l-36.76-98.18
		v98.18h-39.79V216.04z"/>
	<path class="st1" d="M1200,247.91h-60.26v33.04h53.28v30.71h-53.28v35.83H1200v31.87h-100.04V216.04H1200V247.91z"/>
</g>
</svg>
