<svg width="400" height="400" viewBox="0 0 400 400" fill="none" xmlns="http://www.w3.org/2000/svg">
<path d="M152.69 196.13H43.52C19.48 196.13 0 176.65 0 152.62V43.52C0 19.48 19.48 0 43.52 0H152.69C176.72 0 196.21 19.48 196.21 43.52V152.62C196.2 176.65 176.72 196.13 152.69 196.13Z" fill="#FDC314"/>
<path d="M55.55 92.02C60.2499 92.02 64.06 85.5998 64.06 77.68C64.06 69.7602 60.2499 63.34 55.55 63.34C50.85 63.34 47.04 69.7602 47.04 77.68C47.04 85.5998 50.85 92.02 55.55 92.02Z" fill="#3B3735"/>
<path d="M140.65 92.02C145.35 92.02 149.16 85.5998 149.16 77.68C149.16 69.7602 145.35 63.34 140.65 63.34C135.95 63.34 132.14 69.7602 132.14 77.68C132.14 85.5998 135.95 92.02 140.65 92.02Z" fill="#3B3735"/>
<path d="M127.32 110.2C135.03 110.2 140.02 118.3 136.59 125.2C130.12 138.2 115.5 147.28 98.5 147.28C81.5 147.28 66.88 138.21 60.41 125.2C56.98 118.3 61.97 110.2 69.68 110.2H127.32Z" fill="#3B3735"/>
<path d="M152.19 400H44.02C19.71 400 0 380.29 0 355.98V247.88C0 223.57 19.71 203.86 44.02 203.86H152.19C176.5 203.86 196.21 223.57 196.21 247.88V355.98C196.2 380.29 176.49 400 152.19 400Z" fill="#1881BF"/>
<path d="M59.52 307.79C65.6062 307.79 70.54 302.856 70.54 296.77C70.54 290.684 65.6062 285.75 59.52 285.75C53.4338 285.75 48.5 290.684 48.5 296.77C48.5 302.856 53.4338 307.79 59.52 307.79Z" fill="#3B3735"/>
<path d="M136.68 307.79C142.766 307.79 147.7 302.856 147.7 296.77C147.7 290.684 142.766 285.75 136.68 285.75C130.594 285.75 125.66 290.684 125.66 296.77C125.66 302.856 130.594 307.79 136.68 307.79Z" fill="#3B3735"/>
<path d="M160.29 335.59H35.91C34.46 335.59 33.29 334.42 33.29 332.97C33.29 331.52 34.46 330.35 35.91 330.35H160.29C161.74 330.35 162.91 331.52 162.91 332.97C162.91 334.42 161.74 335.59 160.29 335.59Z" fill="#3B3735"/>
<path d="M356.48 196.13H247.31C223.28 196.13 203.79 176.65 203.79 152.61V43.52C203.8 19.48 223.28 0 247.31 0H356.48C380.52 0 400 19.48 400 43.52V152.62C400 176.65 380.52 196.13 356.48 196.13Z" fill="#EF7700"/>
<path d="M330.79 140.88C332.39 141.47 334.01 140.12 333.77 138.43C331.76 124.35 318.26 113.46 301.9 113.46C285.55 113.46 272.05 124.34 270.03 138.42C269.79 140.11 271.41 141.46 273.02 140.87L288.43 135.18C297.02 132.01 306.46 131.99 315.06 135.14L330.79 140.88Z" fill="#3B3735"/>
<path d="M269.29 98.06C272.918 98.06 275.86 93.1083 275.86 87C275.86 80.8917 272.918 75.94 269.29 75.94C265.661 75.94 262.72 80.8917 262.72 87C262.72 93.1083 265.661 98.06 269.29 98.06Z" fill="#3B3735"/>
<path d="M334.96 98.06C338.588 98.06 341.53 93.1083 341.53 87C341.53 80.8917 338.588 75.94 334.96 75.94C331.331 75.94 328.39 80.8917 328.39 87C328.39 93.1083 331.331 98.06 334.96 98.06Z" fill="#3B3735"/>
<path d="M276.74 78.97C272.79 75.96 263.46 70.41 248.26 70.38C247.49 70.38 246.74 70.02 246.31 69.38C245.52 68.2 244.83 66.2 247.49 64.65C247.49 64.65 254.93 60.26 263.72 63.64C263.72 63.64 273.42 68.49 277.33 74.71C277.5 74.99 277.62 75.29 277.69 75.61L278.25 77.99C278.47 78.86 277.46 79.52 276.74 78.97Z" fill="#3B3735"/>
<path d="M327.06 78.97C331.01 75.96 340.34 70.41 355.54 70.38C356.31 70.38 357.06 70.02 357.49 69.38C358.28 68.2 358.97 66.2 356.31 64.65C356.31 64.65 348.87 60.26 340.08 63.64C340.08 63.64 330.38 68.49 326.47 74.71C326.3 74.99 326.18 75.29 326.11 75.61L325.55 77.99C325.33 78.86 326.34 79.52 327.06 78.97Z" fill="#3B3735"/>
<path d="M396.75 217.181C382.795 225.231 367.023 236.756 352.193 249.754C340.241 260.231 327.494 272.857 315.688 285.908C307.543 294.926 298.762 305.417 290.829 315.616C288.07 319.17 280.934 328.693 278.692 331.836C277.538 333.454 276.901 334.237 276.769 334.197C276.662 334.17 266.568 328.494 254.351 321.597L232.132 309.038L231.628 309.608C231.363 309.926 231.071 310.271 231.005 310.39C230.885 310.603 232.769 312.804 280.801 368.494L284.661 372.977H285.192H285.722L288.734 366.969C303.604 337.38 318.208 313.016 334.776 290.152C353.042 264.966 373.722 241.77 396.989 220.403C398.647 218.878 400 217.592 400 217.539C400 217.472 399.085 216.173 398.912 216C398.886 215.987 397.917 216.517 396.75 217.181Z" fill="#1F1C1C"/>
</svg>
